<?xml version="1.0" standalone="no"?>
<!DOCTYPE svg PUBLIC "-//W3C//DTD SVG 20010904//EN"
 "http://www.w3.org/TR/2001/REC-SVG-20010904/DTD/svg10.dtd">
<svg version="1.0" xmlns="http://www.w3.org/2000/svg"
 width="700.000000pt" height="700.000000pt" viewBox="0 0 700.000000 700.000000"
 preserveAspectRatio="xMidYMid meet">
<metadata>
Created by potrace 1.14, written by Peter Selinger 2001-2017
</metadata>
<g transform="translate(0.000000,700.000000) scale(0.100000,-0.100000)"
fill="#000000" stroke="none">
<path d="M737 6990 c-337 -57 -599 -290 -704 -627 l-28 -88 0 -2775 0 -2775
28 -88 c95 -304 300 -509 604 -604 l88 -28 2775 0 2775 0 88 28 c304 95 509
300 604 604 l28 88 0 2775 0 2775 -28 88 c-95 304 -300 509 -604 604 l-88 28
-2745 1 c-1510 1 -2767 -2 -2793 -6z m3698 -614 c28 -17 55 -44 72 -74 l28
-47 3 -242 4 -243 136 0 c75 0 155 -5 177 -11 56 -16 129 -91 145 -148 25 -94
-23 -203 -109 -248 -43 -22 -51 -23 -338 -23 -320 0 -338 3 -397 58 -64 61
-66 69 -66 475 0 395 2 410 53 465 69 75 200 91 292 38z m-1674 9 c52 -19 94
-56 120 -107 18 -35 19 -63 19 -412 0 -208 -4 -386 -9 -399 -15 -38 -70 -96
-115 -120 -39 -21 -52 -22 -331 -22 -264 0 -293 2 -325 19 -92 49 -134 119
-128 212 5 84 41 138 117 177 52 26 61 27 203 27 l148 0 0 240 c0 267 3 281
63 338 62 59 152 77 238 47z m861 -350 c28 -20 53 -49 71 -85 l28 -55 -3 -205
c-3 -222 -6 -235 -64 -294 -58 -57 -142 -78 -224 -56 -58 16 -133 89 -149 145
-16 58 -14 390 3 438 20 55 60 102 108 126 66 33 172 26 230 -14z m1983 -1116
c56 -15 128 -92 143 -152 7 -25 12 -102 12 -171 l0 -126 244 0 244 0 53 -28
c43 -22 59 -38 81 -81 48 -92 36 -192 -32 -259 -62 -63 -63 -63 -501 -60
l-397 3 -44 30 c-28 20 -52 49 -70 84 l-28 55 0 271 0 271 26 52 c49 99 155
142 269 111z m-4014 -27 c39 -20 62 -41 84 -77 l30 -48 3 -264 c4 -314 -2
-346 -72 -411 -24 -22 -61 -45 -82 -51 -25 -7 -177 -11 -410 -11 l-370 0 -51
25 c-72 36 -106 89 -111 170 -7 105 32 180 113 216 35 16 69 19 288 19 l247 0
0 138 c1 147 10 189 53 246 60 77 181 99 278 48z m2284 -301 c162 -45 285
-113 394 -216 118 -112 190 -233 232 -390 29 -110 30 -298 1 -406 -81 -304
-308 -524 -610 -593 -56 -13 -128 -16 -335 -16 -234 0 -266 2 -278 17 -20 23
-25 357 -6 393 l13 25 244 5 c243 5 245 5 302 33 87 43 152 107 194 193 31 63
37 84 37 141 0 89 -15 138 -64 212 -45 67 -115 124 -189 152 -46 17 -82 19
-430 19 l-380 0 0 -866 c0 -960 3 -916 -65 -948 -46 -22 -283 -23 -325 -1 -63
33 -60 -30 -60 1134 l0 1061 28 31 c15 17 43 34 62 39 19 5 287 8 595 6 547
-2 562 -3 640 -25z m2077 -884 c84 -49 128 -162 98 -252 -16 -48 -63 -101
-114 -128 -39 -21 -54 -22 -256 -22 -201 0 -218 1 -255 22 -142 76 -167 243
-53 351 58 55 97 62 328 59 204 -2 205 -2 252 -30z m-4340 -10 c134 -79 139
-270 10 -362 l-44 -30 -228 -3 c-211 -3 -232 -2 -267 17 -77 39 -123 111 -123
191 0 93 40 156 125 197 49 23 56 23 265 21 215 -3 215 -3 262 -31z m4649
-718 c143 -48 195 -233 97 -345 -59 -67 -66 -68 -348 -74 l-255 -5 -5 -155
c-5 -167 -12 -190 -67 -242 -61 -58 -169 -75 -248 -39 -50 22 -101 79 -115
128 -8 25 -10 134 -8 320 l3 281 30 43 c19 27 50 54 84 71 l53 28 373 0 c251
0 383 -4 406 -11z m-4653 -32 c23 -15 54 -46 69 -69 l28 -41 3 -285 3 -284
-27 -55 c-76 -156 -300 -162 -389 -12 -17 29 -21 58 -25 189 l-5 155 -255 5
c-212 4 -260 8 -285 22 -157 87 -152 314 10 389 37 18 67 19 436 16 l395 -2
42 -28z m1129 -1292 c61 -18 128 -80 144 -134 6 -23 9 -166 7 -412 l-3 -376
-29 -41 c-19 -27 -47 -51 -82 -68 -46 -23 -64 -26 -123 -22 -58 3 -78 9 -112
33 -23 17 -53 50 -66 74 -22 43 -23 52 -23 283 l0 238 -119 0 c-195 0 -261 21
-318 104 -40 56 -44 153 -11 216 27 50 88 98 139 110 19 4 149 8 290 9 201 1
266 -2 306 -14z m848 -10 c39 -16 88 -64 109 -108 13 -29 16 -70 16 -242 0
-223 -3 -238 -59 -298 -84 -91 -237 -91 -323 0 -52 55 -58 85 -58 300 0 228 7
253 80 316 65 55 151 67 235 32z m1295 1 c83 -44 122 -107 122 -197 0 -46 -6
-69 -27 -104 -52 -89 -125 -115 -321 -115 l-114 0 -1 -187 c0 -104 -3 -212 -5
-242 -12 -129 -93 -201 -224 -201 -68 0 -118 21 -162 67 -57 59 -58 70 -58
465 0 331 2 367 19 404 22 49 90 109 139 123 22 5 153 9 317 8 252 -2 283 -4
315 -21z"/>
</g>
</svg>
