<svg width="32" height="32" viewBox="0 0 32 32" fill="none" xmlns="http://www.w3.org/2000/svg">
<path d="M11.4113 9.92188H12.6177C12.9662 9.92188 13.2477 10.1962 13.2477 10.5357V21.8009C13.2477 22.1405 12.9662 22.4147 12.6177 22.4147H11.4113C11.0627 22.4147 10.7812 22.1405 10.7812 21.8009V10.5357C10.7812 10.1962 11.0627 9.92188 11.4113 9.92188Z" fill="#1D1E22"/>
<path d="M10.7812 12.384V10.5489C10.7812 10.1832 11.0829 9.88281 11.4649 9.88281H17.1887V12.3775L10.7812 12.384Z" fill="#1D1E22"/>
<path d="M17.1889 18.9339V16.4915C17.3765 16.4915 17.839 16.4001 18.335 15.9821C18.5427 15.8123 19.0856 15.2899 19.1057 14.4605C19.1258 13.4809 18.3886 12.8932 18.2947 12.8214C17.8256 12.4557 17.5106 12.3838 17.1889 12.3838C16.3377 12.3838 17.1889 10.7185 17.1889 9.88916C17.6513 9.88916 18.7974 10.0981 19.7827 10.8165C20.2988 11.1887 20.6138 11.5871 20.7344 11.7438C20.8886 11.9463 21.3242 12.5536 21.5253 13.4418C21.5856 13.7095 21.9408 15.3813 20.8886 16.9552C20.339 17.778 19.6553 18.2025 19.4006 18.3462C18.4824 18.8621 17.6245 18.9339 17.1889 18.9339Z" fill="#1D1E22"/>
<path d="M14.9718 16.4917H17.209V18.9341H14.9718C14.8266 18.9341 14.709 18.7872 14.709 18.6056V16.8202C14.709 16.6386 14.8266 16.4917 14.9718 16.4917Z" fill="#1D1E22"/>
<path d="M6.24399 15.9299C6.24399 16.596 5.6877 17.1381 5.00405 17.1381H3.26814C2.5845 17.1381 2.0282 16.596 2.0282 15.9299C2.0282 15.2638 2.5845 14.7218 3.26814 14.7218H5.00405C5.6944 14.7153 6.24399 15.2573 6.24399 15.9299ZM12.7453 4.79541C12.7453 5.46152 12.189 6.00355 11.5053 6.00355H8.92494C8.2413 6.00355 7.685 5.46152 7.685 4.79541C7.685 4.1293 8.2413 3.58726 8.92494 3.58726H11.5053C12.189 3.58726 12.7453 4.1293 12.7453 4.79541ZM11.445 0.0869113H11.5523C12.2091 0.0869113 12.7386 0.602822 12.7386 1.24281V4.80847C12.7386 5.44846 12.2091 5.96437 11.5523 5.96437H11.445C10.7882 5.96437 10.2587 5.44846 10.2587 4.80847V1.24281C10.2587 0.602822 10.7882 0.0869113 11.445 0.0869113ZM7.61798 27.2408C7.61798 26.5747 8.17427 26.0326 8.85791 26.0326H11.4383C12.122 26.0326 12.6783 26.5747 12.6783 27.2408C12.6783 27.9069 12.122 28.4489 11.4383 28.4489H8.85791C8.17427 28.4489 7.61798 27.9069 7.61798 27.2408ZM11.3914 26.0653H11.4986C12.1555 26.0653 12.685 26.5812 12.685 27.2212V30.7868C12.685 31.4268 12.1555 31.9427 11.4986 31.9427H11.3914C10.7346 31.9427 10.2051 31.4268 10.2051 30.7868V27.2212C10.2051 26.5877 10.7346 26.0653 11.3914 26.0653ZM19.2198 27.2408C19.2198 26.5747 19.7761 26.0326 20.4597 26.0326H23.0401C23.7238 26.0326 24.2801 26.5747 24.2801 27.2408C24.2801 27.9069 23.7238 28.4489 23.0401 28.4489H20.4597C19.7761 28.4489 19.2198 27.9069 19.2198 27.2408ZM20.5133 31.9493H20.4061C19.7493 31.9493 19.2198 31.4334 19.2198 30.7934V27.2277C19.2198 26.5877 19.7493 26.0718 20.4061 26.0718H20.5133C21.1702 26.0718 21.6996 26.5877 21.6996 27.2277V30.7934C21.7063 31.4268 21.1702 31.9493 20.5133 31.9493ZM24.2868 4.73664C24.2868 5.40275 23.7305 5.94478 23.0468 5.94478H20.4597C19.7761 5.94478 19.2198 5.40275 19.2198 4.73664C19.2198 4.07052 19.7761 3.52849 20.4597 3.52849H23.0401C23.7305 3.52849 24.2868 4.07052 24.2868 4.73664ZM20.5133 5.91213H20.4061C19.7493 5.91213 19.2198 5.39622 19.2198 4.75623V1.19057C19.2198 0.550577 19.7493 0.034668 20.4061 0.034668H20.5133C21.1702 0.034668 21.6996 0.550577 21.6996 1.19057V4.75623C21.7063 5.38969 21.1702 5.91213 20.5133 5.91213ZM4.96384 18.8229C5.64748 18.8229 6.20378 19.365 6.20378 20.0311V22.5453C6.20378 23.2114 5.64748 23.7535 4.96384 23.7535C4.2802 23.7535 3.7239 23.2114 3.7239 22.5453V20.0311C3.7239 19.365 4.2802 18.8229 4.96384 18.8229ZM0.131436 20.0833V19.9788C0.131436 19.3389 0.660922 18.8229 1.31775 18.8229H4.97725C5.63408 18.8229 6.16356 19.3389 6.16356 19.9788V20.0833C6.16356 20.7233 5.63408 21.2392 4.97725 21.2392H1.31775C0.660922 21.2458 0.131436 20.7233 0.131436 20.0833ZM3.7038 11.9006V9.38636C3.7038 8.72024 4.26009 8.17821 4.94373 8.17821C5.62737 8.17821 6.18367 8.72024 6.18367 9.38636V11.9006C6.18367 12.5667 5.62737 13.1087 4.94373 13.1087C4.26009 13.1087 3.7038 12.5732 3.7038 11.9006ZM1.29765 10.6925H4.95714C5.61397 10.6925 6.14346 11.2084 6.14346 11.8484V11.9528C6.14346 12.5928 5.61397 13.1087 4.95714 13.1087H1.29765C0.640816 13.1087 0.111328 12.5928 0.111328 11.9528V11.8484C0.111328 11.2084 0.640816 10.6925 1.29765 10.6925ZM27.095 14.6761H28.831C29.5146 14.6761 30.0709 15.2181 30.0709 15.8842C30.0709 16.5503 29.5146 17.0924 28.831 17.0924H27.095C26.4114 17.0924 25.8551 16.5503 25.8551 15.8842C25.8551 15.2181 26.4114 14.6761 27.095 14.6761ZM28.3752 19.9919V22.5062C28.3752 23.1723 27.8189 23.7143 27.1353 23.7143C26.4516 23.7143 25.8953 23.1723 25.8953 22.5062V19.9919C25.8953 19.3258 26.4516 18.7838 27.1353 18.7838C27.8189 18.7838 28.3752 19.3258 28.3752 19.9919ZM30.7814 21.2001H27.1219C26.465 21.2001 25.9355 20.6841 25.9355 20.0441V19.9397C25.9355 19.2997 26.465 18.7838 27.1219 18.7838H30.7814C31.4382 18.7838 31.9677 19.2997 31.9677 19.9397V20.0441C31.9677 20.6841 31.4382 21.2001 30.7814 21.2001ZM27.1554 13.0696C26.4717 13.0696 25.9154 12.5275 25.9154 11.8614V9.34718C25.9154 8.68106 26.4717 8.13903 27.1554 8.13903C27.839 8.13903 28.3953 8.68106 28.3953 9.34718V11.8614C28.3953 12.5275 27.839 13.0696 27.1554 13.0696ZM31.9878 11.8092V11.9137C31.9878 12.5537 31.4583 13.0696 30.8015 13.0696H27.142C26.4851 13.0696 25.9556 12.5537 25.9556 11.9137V11.8092C25.9556 11.1692 26.4851 10.6533 27.142 10.6533H30.8015C31.4583 10.6533 31.9878 11.1692 31.9878 11.8092ZM14.7359 4.76929V3.07789C14.7359 2.41177 15.2922 1.86974 15.9758 1.86974C16.6595 1.86974 17.2158 2.41177 17.2158 3.07789V4.76929C17.2158 5.4354 16.6595 5.97743 15.9758 5.97743C15.2922 5.97743 14.7359 5.4354 14.7359 4.76929ZM14.7091 28.9387V27.2473C14.7091 26.5812 15.2654 26.0392 15.949 26.0392C16.6327 26.0392 17.189 26.5812 17.189 27.2473V28.9387C17.189 29.6048 16.6327 30.1468 15.949 30.1468C15.2654 30.1468 14.7091 29.6048 14.7091 28.9387Z" fill="url(#paint0_linear_86_2)"/>
<defs>
<linearGradient id="paint0_linear_86_2" x1="16.1367" y1="31.9695" x2="15.991" y2="0.054876" gradientUnits="userSpaceOnUse">
<stop stop-color="#54ABB0"/>
<stop offset="1" stop-color="#E9B12C"/>
</linearGradient>
</defs>
</svg>
