<svg width="100" height="100" viewBox="0 0 100 100" fill="none" xmlns="http://www.w3.org/2000/svg">
<g clip-path="url(#clip0_79_2)">
<path d="M35.6607 31.0063H39.4308C40.5199 31.0063 41.3996 31.8635 41.3996 32.9247V68.1282C41.3996 69.1894 40.5199 70.0465 39.4308 70.0465H35.6607C34.5716 70.0465 33.6919 69.1894 33.6919 68.1282V32.9247C33.6919 31.8635 34.5716 31.0063 35.6607 31.0063Z" fill="#1D1E22"/>
<path d="M33.6919 38.7V32.9654C33.6919 31.8226 34.6344 30.8838 35.8283 30.8838H53.7152V38.6796L33.6919 38.7Z" fill="#1D1E22"/>
<path d="M53.7149 59.1692V51.5366C54.3014 51.5366 55.7466 51.2509 57.2965 49.9448C57.9458 49.4142 59.6423 47.7816 59.7052 45.1898C59.768 42.1286 57.4641 40.2919 57.1708 40.0674C55.7047 38.9246 54.7203 38.7001 53.7149 38.7001C51.0549 38.7001 53.7149 33.4961 53.7149 30.9043C55.1601 30.9043 58.7417 31.5574 61.8206 33.8022C63.4334 34.9655 64.4178 36.2103 64.7948 36.7001C65.2765 37.3328 66.6379 39.2307 67.2663 42.0062C67.4548 42.8429 68.5649 48.0673 65.2765 52.9856C63.559 55.557 61.4227 56.8835 60.6268 57.3325C57.7573 58.9447 55.0764 59.1692 53.7149 59.1692Z" fill="#1D1E22"/>
<path d="M46.7806 51.5366H53.7154V59.1692H46.7806C46.3303 59.1692 45.9658 58.71 45.9658 58.1426V52.5631C45.9658 51.9958 46.3303 51.5366 46.7806 51.5366Z" fill="#1D1E22"/>
<path d="M19.5122 49.7816C19.5122 51.8632 17.7738 53.557 15.6374 53.557H10.2127C8.07632 53.557 6.3379 51.8632 6.3379 49.7816C6.3379 47.7 8.07632 46.0061 10.2127 46.0061H15.6374C17.7947 45.9857 19.5122 47.6796 19.5122 49.7816ZM39.8288 14.9862C39.8288 17.0678 38.0903 18.7617 35.954 18.7617H27.8902C25.7538 18.7617 24.0154 17.0678 24.0154 14.9862C24.0154 12.9046 25.7538 11.2108 27.8902 11.2108H35.954C38.0903 11.2108 39.8288 12.9046 39.8288 14.9862ZM35.7655 0.272147H36.1006C38.1532 0.272147 39.8078 1.88437 39.8078 3.88434V15.027C39.8078 17.027 38.1532 18.6392 36.1006 18.6392H35.7655C33.7129 18.6392 32.0582 17.027 32.0582 15.027V3.88434C32.0582 1.88437 33.7129 0.272147 35.7655 0.272147ZM23.8059 85.128C23.8059 83.0464 25.5444 81.3525 27.6807 81.3525H35.7445C37.8809 81.3525 39.6193 83.0464 39.6193 85.128C39.6193 87.2096 37.8809 88.9034 35.7445 88.9034H27.6807C25.5444 88.9034 23.8059 87.2096 23.8059 85.128ZM35.5979 81.4546H35.933C37.9856 81.4546 39.6403 83.0668 39.6403 85.0667V96.2094C39.6403 98.2094 37.9856 99.8216 35.933 99.8216H35.5979C33.5453 99.8216 31.8907 98.2094 31.8907 96.2094V85.0667C31.8907 83.0872 33.5453 81.4546 35.5979 81.4546ZM60.0615 85.128C60.0615 83.0464 61.8 81.3525 63.9363 81.3525H72.0001C74.1365 81.3525 75.8749 83.0464 75.8749 85.128C75.8749 87.2096 74.1365 88.9034 72.0001 88.9034H63.9363C61.8 88.9034 60.0615 87.2096 60.0615 85.128ZM64.1039 99.842H63.7688C61.7162 99.842 60.0615 98.2298 60.0615 96.2298V85.0871C60.0615 83.0872 61.7162 81.475 63.7688 81.475H64.1039C66.1565 81.475 67.8111 83.0872 67.8111 85.0871V96.2298C67.8321 98.2094 66.1565 99.842 64.1039 99.842ZM75.8959 14.8025C75.8959 16.8841 74.1574 18.578 72.0211 18.578H63.9363C61.8 18.578 60.0615 16.8841 60.0615 14.8025C60.0615 12.7209 61.8 11.0271 63.9363 11.0271H72.0001C74.1575 11.0271 75.8959 12.7209 75.8959 14.8025ZM64.1039 18.4759H63.7688C61.7162 18.4759 60.0615 16.8637 60.0615 14.8638V3.72107C60.0615 1.7211 61.7162 0.108887 63.7688 0.108887H64.1039C66.1565 0.108887 67.8111 1.7211 67.8111 3.72107V14.8638C67.8321 16.8433 66.1565 18.4759 64.1039 18.4759ZM15.5118 58.8222C17.6481 58.8222 19.3866 60.5161 19.3866 62.5977V70.4547C19.3866 72.5363 17.6481 74.2302 15.5118 74.2302C13.3754 74.2302 11.637 72.5363 11.637 70.4547V62.5977C11.637 60.5161 13.3754 58.8222 15.5118 58.8222ZM0.410495 62.761V62.4344C0.410495 60.4345 2.06514 58.8222 4.11774 58.8222H15.5536C17.6062 58.8222 19.2609 60.4345 19.2609 62.4344V62.761C19.2609 64.7609 17.6062 66.3732 15.5536 66.3732H4.11774C2.06514 66.3936 0.410495 64.7609 0.410495 62.761ZM11.5741 37.1899V29.3329C11.5741 27.2513 13.3125 25.5575 15.4489 25.5575C17.5853 25.5575 19.3237 27.2513 19.3237 29.3329V37.1899C19.3237 39.2715 17.5853 40.9654 15.4489 40.9654C13.3125 40.9654 11.5741 39.2919 11.5741 37.1899ZM4.0549 33.4145H15.4908C17.5434 33.4145 19.1981 35.0267 19.1981 37.0267V37.3532C19.1981 39.3532 17.5434 40.9654 15.4908 40.9654H4.0549C2.00231 40.9654 0.347656 39.3532 0.347656 37.3532V37.0267C0.347656 35.0267 2.00231 33.4145 4.0549 33.4145ZM84.6718 45.8633H90.0965C92.2329 45.8633 93.9713 47.5571 93.9713 49.6387C93.9713 51.7203 92.2329 53.4142 90.0965 53.4142H84.6718C82.5354 53.4142 80.797 51.7203 80.797 49.6387C80.797 47.5571 82.5354 45.8633 84.6718 45.8633ZM88.6723 62.4753V70.3323C88.6723 72.4139 86.9338 74.1077 84.7975 74.1077C82.6611 74.1077 80.9226 72.4139 80.9226 70.3323V62.4753C80.9226 60.3937 82.6611 58.6998 84.7975 58.6998C86.9338 58.6998 88.6723 60.3937 88.6723 62.4753ZM96.1915 66.2507H84.7556C82.703 66.2507 81.0483 64.6385 81.0483 62.6385V62.312C81.0483 60.312 82.703 58.6998 84.7556 58.6998H96.1915C98.2441 58.6998 99.8987 60.312 99.8987 62.312V62.6385C99.8987 64.6385 98.2441 66.2507 96.1915 66.2507ZM84.8603 40.8429C82.7239 40.8429 80.9855 39.1491 80.9855 37.0675V29.2105C80.9855 27.1289 82.7239 25.435 84.8603 25.435C86.9967 25.435 88.7351 27.1289 88.7351 29.2105V37.0675C88.7351 39.1491 86.9967 40.8429 84.8603 40.8429ZM99.9616 36.9042V37.2308C99.9616 39.2307 98.3069 40.8429 96.2543 40.8429H84.8184C82.7658 40.8429 81.1112 39.2307 81.1112 37.2308V36.9042C81.1112 34.9043 82.7658 33.292 84.8184 33.292H96.2543C98.3069 33.292 99.9616 34.9043 99.9616 36.9042ZM46.0494 14.9046V9.61894C46.0494 7.53734 47.7878 5.84349 49.9242 5.84349C52.0606 5.84349 53.799 7.53734 53.799 9.61894V14.9046C53.799 16.9862 52.0606 18.68 49.9242 18.68C47.7878 18.68 46.0494 16.9862 46.0494 14.9046ZM45.9656 90.434V85.1484C45.9656 83.0668 47.7041 81.3729 49.8404 81.3729C51.9768 81.3729 53.7152 83.0668 53.7152 85.1484V90.434C53.7152 92.5156 51.9768 94.2095 49.8404 94.2095C47.7041 94.2095 45.9656 92.5156 45.9656 90.434Z" fill="url(#paint0_linear_79_2)"/>
</g>
<defs>
<linearGradient id="paint0_linear_79_2" x1="50.4269" y1="99.9053" x2="49.9715" y2="0.172037" gradientUnits="userSpaceOnUse">
<stop stop-color="#54ABB0"/>
<stop offset="1" stop-color="#E9B12C"/>
</linearGradient>
<clipPath id="clip0_79_2">
<rect width="100" height="100" fill="white"/>
</clipPath>
</defs>
</svg>
